<svg width="588" height="436" viewBox="0 0 588 436" fill="none" xmlns="http://www.w3.org/2000/svg">
<g clip-path="url(#clip0_5000_22454)">
<path d="M31.19 285.023L28.39 283.583C27.6349 284.8 27.0438 286.111 26.632 287.483L29.672 288.473C30.0571 287.274 30.5658 286.117 31.19 285.023Z" fill="#181716"/>
<path d="M100.639 366.622C95.439 345.35 82.772 335.376 71.597 326.575C62.308 319.261 54.288 312.944 51.417 301.197C49.971 295.286 53.438 288.025 56.792 281.005C59.61 275.105 62.525 269.005 62.909 263.014C63.388 255.583 59.897 249.548 52.534 245.079C43.034 239.307 31.215 240.363 20.934 247.901C13.208 253.553 6.98502 262.313 3.40302 272.553C-0.553539 284.064 -1.08091 296.476 1.88502 308.28C7.71102 332.114 22.525 344.631 34.426 354.689C42.605 361.601 49.667 367.569 51.562 375.316C53.443 383.016 50.331 388.316 46.726 394.441C41.974 402.522 36.059 412.58 47.026 427C53.144 435.04 62.119 437.813 71.578 434.794C72.861 434.383 74.1143 433.884 75.329 433.301C84.45 428.95 92.521 419.835 97.47 408.292C103.061 395.124 104.174 380.484 100.639 366.622ZM89.254 404.764C85.209 414.198 78.567 421.845 71.484 425.224C66.611 427.547 59.654 428.802 54.154 421.582C46.819 411.94 49.854 406.782 54.441 398.982C58.255 392.497 63 384.425 60.256 373.194C57.67 362.617 49.186 355.448 40.204 347.857C28.724 338.157 15.714 327.157 10.58 306.157C4.94402 283.095 14.736 263.535 26.219 255.12C28.4559 253.445 30.9491 252.143 33.602 251.264C35.9451 250.445 38.4396 250.152 40.9087 250.405C43.3778 250.659 45.7609 251.452 47.889 252.729C56.737 258.101 55.142 263.692 48.716 277.148C44.874 285.192 40.516 294.31 42.716 303.322C46.321 318.068 56.353 325.969 66.054 333.608C76.585 341.9 87.473 350.474 91.939 368.748C95.013 380.723 94.0697 393.377 89.254 404.764Z" fill="#181716"/>
<path d="M40.354 275.589C42.295 274.97 44.0087 273.789 45.2785 272.196C46.5482 270.602 47.317 268.668 47.4876 266.638C47.6581 264.608 47.2228 262.573 46.2366 260.79C45.2504 259.008 43.7577 257.557 41.9473 256.623C40.1369 255.689 38.09 255.312 36.0656 255.541C34.0413 255.77 32.1303 256.595 30.5744 257.91C29.0185 259.225 27.8876 260.972 27.3247 262.93C26.7618 264.888 26.7922 266.969 27.412 268.91C28.243 271.512 30.0731 273.677 32.5001 274.929C34.9271 276.182 37.7521 276.419 40.354 275.589Z" fill="#181716"/>
<path d="M64.322 399.837C62.3812 400.456 60.6676 401.637 59.3981 403.231C58.1286 404.824 57.3601 406.758 57.1898 408.788C57.0196 410.819 57.4552 412.854 58.4417 414.636C59.4281 416.419 60.921 417.869 62.7316 418.803C64.5422 419.737 66.5891 420.113 68.6135 419.884C70.6378 419.654 72.5487 418.83 74.1044 417.514C75.6601 416.199 76.7907 414.452 77.3533 412.493C77.9159 410.535 77.8852 408.454 77.265 406.514C76.4337 403.912 74.6032 401.748 72.176 400.495C69.7489 399.243 66.9238 399.006 64.322 399.837Z" fill="#181716"/>
<path d="M77.471 385.984L74.33 385.384C74.1415 386.5 73.8177 387.59 73.366 388.628L76.218 390.071C76.8129 388.769 77.2342 387.395 77.471 385.984Z" fill="#181716"/>
<path d="M76.09 370.201L73.051 371.192L73.141 371.473C73.8572 373.683 74.3408 375.962 74.584 378.273L77.764 377.954C77.4997 375.421 76.9708 372.923 76.186 370.5L76.09 370.201Z" fill="#181716"/>
<path d="M64.138 350.216C62.522 348.344 60.738 346.448 58.848 344.582L56.605 346.859C58.437 348.666 60.159 350.498 61.721 352.305L64.138 350.216Z" fill="#181716"/>
<path d="M35.787 324.397C37.212 326.418 38.798 328.477 40.504 330.52L42.957 328.471C41.307 326.495 39.775 324.505 38.4 322.555L35.787 324.397Z" fill="#181716"/>
<path d="M73.003 362.973C71.7864 360.671 70.423 358.45 68.921 356.323L66.306 358.161C67.7288 360.176 69.0205 362.28 70.173 364.461L73.003 362.973Z" fill="#181716"/>
<path d="M28.675 295.44L25.482 295.264C25.3511 297.928 25.5452 300.599 26.06 303.216L29.2 302.616C28.7325 300.255 28.5562 297.845 28.675 295.44Z" fill="#181716"/>
<path d="M28.279 310.781C29.2368 313.206 30.3587 315.563 31.637 317.835L34.427 316.275C33.2197 314.131 32.1602 311.906 31.256 309.617L28.279 310.781Z" fill="#181716"/>
<path d="M47.954 334.06L45.639 336.265C47.345 338.057 49.18 339.88 51.088 341.683L53.288 339.359C51.411 337.595 49.619 335.812 47.954 334.06Z" fill="#181716"/>
<path d="M255.594 282.416C254.446 273.145 251.484 264.19 246.876 256.064C242.268 247.937 236.104 240.798 228.737 235.054C221.369 229.309 212.943 225.072 203.938 222.584C194.933 220.097 185.527 219.407 176.256 220.554C166.984 221.702 158.03 224.664 149.903 229.273C141.777 233.881 134.638 240.044 128.893 247.412C123.149 254.779 118.912 263.206 116.424 272.21C113.936 281.215 113.246 290.622 114.394 299.893L128.894 416.946C129.027 418.045 129.588 419.048 130.455 419.737C131.322 420.426 132.425 420.746 133.526 420.627C134.627 420.509 135.638 419.962 136.338 419.105C137.039 418.247 137.374 417.148 137.271 416.046H137.28L137.27 415.96C137.27 415.96 137.27 415.95 137.27 415.945V415.928L135.815 404.207L151.723 402.239L153.155 413.799C153.288 414.909 153.856 415.922 154.735 416.613C155.614 417.305 156.732 417.619 157.843 417.486C158.953 417.354 159.966 416.785 160.657 415.906C161.349 415.027 161.663 413.909 161.53 412.799L154.403 355.346C165.913 360.844 178.69 363.145 191.394 362.006C204.099 360.867 216.263 356.331 226.611 348.873C236.959 341.416 245.11 331.311 250.209 319.619C255.309 307.927 257.168 295.079 255.593 282.421L255.594 282.416ZM246.225 304.739L230.701 300.558C231.541 296.501 231.833 292.35 231.569 288.215L247.52 286.24C248.012 292.436 247.576 298.672 246.225 304.739ZM193.5 337.039C197.775 336.251 201.918 334.866 205.807 332.924L213.828 346.859C208.067 349.846 201.875 351.914 195.475 352.99L193.5 337.039ZM189.7 329.126C179.634 330.361 169.489 327.554 161.49 321.32C153.491 315.086 148.291 305.934 147.031 295.871V295.856C146.101 288.346 147.419 280.728 150.818 273.967C154.217 267.206 159.545 261.604 166.128 257.871C172.711 254.138 180.253 252.441 187.8 252.994C195.347 253.547 202.561 256.326 208.529 260.979C214.497 265.632 218.951 271.951 221.328 279.135C223.705 286.32 223.899 294.048 221.884 301.342C219.868 308.637 215.735 315.17 210.007 320.115C204.279 325.06 197.213 328.196 189.703 329.126H189.7ZM148.477 375.985L132.559 377.953L130.668 362.706L146.584 360.736L148.477 375.985ZM129.977 357.142L128.24 343.142L144.161 341.172L145.895 355.172L129.977 357.142ZM123.767 277.571L139.291 281.751C138.451 285.808 138.159 289.959 138.424 294.094L122.472 296.069C121.978 289.872 122.415 283.637 123.767 277.57V277.571ZM140.744 276.335L125.237 272.159C127.21 265.981 130.126 260.146 133.882 254.859L146.556 264.741C144.09 268.317 142.134 272.219 140.744 276.334V276.335ZM139.021 299.671L140.909 314.918L124.983 316.889L123.091 301.642L139.021 299.671ZM141.599 320.484L143.472 335.606L127.554 337.576L125.673 322.453L141.599 320.484ZM150.31 322.343C151.519 323.682 152.803 324.951 154.158 326.143L151.246 329.878L150.31 322.343ZM176.491 245.271C172.216 246.059 168.074 247.445 164.185 249.387L156.164 235.453C161.925 232.466 168.117 230.398 174.517 229.322L176.491 245.271ZM199.817 246.903L203.992 231.397C210.17 233.37 216.005 236.285 221.292 240.041L211.409 252.715C207.833 250.249 203.932 248.293 199.817 246.902V246.903ZM230.88 282.653C230.092 278.379 228.707 274.236 226.765 270.348L240.699 262.326C243.686 268.087 245.755 274.279 246.831 280.679L230.88 282.653ZM229.248 305.979L244.754 310.153C242.782 316.331 239.866 322.166 236.11 327.453L223.436 317.571C225.902 313.994 227.858 310.091 229.248 305.975V305.979ZM237.895 257.47L223.961 265.491C221.677 262.037 218.944 258.902 215.835 256.167L225.717 243.492C230.444 247.523 234.547 252.233 237.895 257.466V257.47ZM198.581 229.929L194.4 245.453C190.343 244.614 186.192 244.322 182.057 244.585L180.082 228.634C186.278 228.14 192.514 228.575 198.581 229.925V229.929ZM151.307 238.259L159.329 252.193C155.875 254.478 152.74 257.21 150.004 260.319L137.33 250.437C141.362 245.708 146.072 241.602 151.307 238.253V238.259ZM135.126 398.64L133.254 383.518L149.166 381.549L151.039 396.672L135.126 398.64ZM152.226 337.748L158.583 329.594C162.161 332.06 166.065 334.017 170.183 335.407L166.006 350.919C161.517 349.484 157.203 347.549 153.147 345.149L152.226 337.748ZM171.416 352.382L175.595 336.859C179.652 337.699 183.804 337.991 187.939 337.727L189.914 353.682C183.716 354.175 177.48 353.736 171.412 352.382H171.416ZM218.689 344.053L210.667 330.119C214.121 327.834 217.257 325.102 219.992 321.993L232.666 331.875C228.632 336.602 223.921 340.706 218.685 344.053H218.689Z" fill="#181716"/>
<path d="M328.413 324.253C326.891 321.496 324.697 319.168 322.035 317.485C319.373 315.802 316.329 314.819 313.186 314.626C313.339 313.599 313.543 312.58 313.798 311.573C315.467 305.006 316.512 302.106 317.815 297.446C319.328 292.036 319.434 291.77 321.053 285.474C323.432 276.217 323.553 265.115 319.497 256.282C318.118 253.241 316.127 250.516 313.647 248.28C311.167 246.043 308.253 244.342 305.086 243.282C297.694 241.051 287.001 242.165 281.539 248.3C278.148 252.109 276.422 255.46 276.081 260.776C275.792 265.283 277.449 270.796 280.631 274.116C282.191 275.667 283.945 277.008 285.85 278.107C285.616 280.073 285.263 282.022 284.793 283.945C280.993 299.597 278.158 302.876 276.517 312.645C274.811 322.804 278.156 334.568 285.668 341.985C295.09 351.285 307.907 354.314 320.209 348.979C329.063 345.13 333.07 332.602 328.413 324.253ZM304.889 250.753C307.854 252.892 311.001 257.805 312.46 260.884C315.269 266.55 316.476 272.875 315.952 279.177C315.545 285.226 313.952 292.563 313.212 292.459C312.472 292.355 314.266 279.269 308.135 268.759C302.581 259.234 294.418 257.116 294.69 251.375C294.86 247.78 299.947 247.183 304.889 250.753Z" fill="#181716"/>
<path d="M320.296 212.266C319.849 202.289 312.205 193.851 301.881 193.851C292.249 193.851 283.021 202.321 283.466 212.266C283.913 222.243 291.557 230.681 301.881 230.681C311.513 230.681 320.741 222.211 320.296 212.266ZM312.482 220.255C311.276 221.919 312.782 210.935 305.115 207.624C300.167 205.487 296.071 205.048 295.815 202.185C295.731 201.717 295.798 201.233 296.007 200.806C296.216 200.378 296.556 200.028 296.978 199.807C297.857 199.154 299.168 198.938 301.298 199.107C303.997 199.248 306.599 200.155 308.801 201.722C311.003 203.289 312.714 205.45 313.732 207.953C314.598 209.938 314.938 212.112 314.719 214.267C314.5 216.421 313.729 218.483 312.482 220.253V220.255Z" fill="#181716"/>
<path d="M378.76 323.169C376.061 323.171 373.428 322.328 371.232 320.758C369.036 319.188 367.387 316.97 366.515 314.415C365.644 311.86 365.594 309.097 366.374 306.512C367.153 303.927 368.722 301.652 370.86 300.004L359.16 291.604V351.393C359.16 356.591 361.225 361.577 364.901 365.252C368.576 368.928 373.562 370.993 378.76 370.993C383.958 370.993 388.944 368.928 392.619 365.252C396.295 361.577 398.36 356.591 398.36 351.393V319.753L390.978 314.453C390.101 316.996 388.453 319.203 386.263 320.765C384.073 322.327 381.45 323.168 378.76 323.169ZM378.76 362.369C376.201 362.369 373.7 361.61 371.573 360.189C369.446 358.767 367.788 356.747 366.809 354.383C365.83 352.02 365.573 349.419 366.073 346.909C366.572 344.4 367.804 342.095 369.613 340.286C371.422 338.477 373.727 337.245 376.236 336.746C378.746 336.246 381.347 336.503 383.71 337.482C386.074 338.461 388.094 340.119 389.516 342.246C390.937 344.373 391.696 346.875 391.696 349.433C391.696 351.132 391.361 352.814 390.711 354.383C390.061 355.952 389.108 357.378 387.907 358.579C386.705 359.78 385.279 360.733 383.71 361.383C382.141 362.033 380.459 362.367 378.76 362.367V362.369Z" fill="#181716"/>
<path d="M371.107 196.173C371.106 194.11 371.718 192.094 372.865 190.379C374.012 188.665 375.643 187.33 377.55 186.544C379.457 185.758 381.555 185.556 383.577 185.965C385.599 186.373 387.454 187.373 388.907 188.838C388.318 187.418 387.422 186.145 386.282 185.112C385.143 184.08 383.789 183.312 382.318 182.865C380.847 182.418 379.294 182.302 377.773 182.526C376.252 182.75 374.799 183.309 373.519 184.161C372.239 185.014 371.164 186.14 370.371 187.457C369.578 188.775 369.087 190.251 368.933 191.782C368.779 193.312 368.966 194.857 369.48 196.306C369.994 197.755 370.823 199.073 371.907 200.163C371.379 198.899 371.107 197.543 371.107 196.173Z" fill="#181716"/>
<path d="M371.107 235.212C371.106 233.149 371.718 231.132 372.865 229.418C374.012 227.703 375.643 226.368 377.55 225.582C379.457 224.796 381.555 224.595 383.577 225.003C385.599 225.412 387.454 226.412 388.907 227.877C388.318 226.456 387.422 225.184 386.282 224.151C385.143 223.118 383.789 222.351 382.318 221.903C380.847 221.456 379.294 221.341 377.773 221.565C376.252 221.789 374.799 222.347 373.519 223.2C372.239 224.053 371.164 225.178 370.371 226.496C369.578 227.813 369.087 229.29 368.933 230.82C368.779 232.35 368.966 233.895 369.48 235.345C369.994 236.794 370.823 238.111 371.907 239.202C371.379 237.938 371.107 236.582 371.107 235.212Z" fill="#181716"/>
<path d="M371.107 353.446C371.106 351.383 371.717 349.366 372.865 347.652C374.012 345.937 375.642 344.602 377.55 343.816C379.457 343.03 381.555 342.828 383.577 343.237C385.599 343.645 387.454 344.645 388.907 346.11C388.318 344.69 387.422 343.417 386.282 342.384C385.143 341.352 383.789 340.584 382.318 340.137C380.847 339.69 379.294 339.574 377.773 339.798C376.252 340.022 374.799 340.581 373.519 341.433C372.239 342.286 371.164 343.411 370.371 344.729C369.578 346.047 369.087 347.523 368.933 349.054C368.779 350.584 368.966 352.129 369.48 353.578C369.994 355.027 370.823 356.345 371.907 357.435C371.379 356.172 371.107 354.816 371.107 353.446Z" fill="#181716"/>
<path d="M454.746 303.516L422.075 278.891L414.828 282.705C417.26 283.476 419.41 284.948 421.007 286.938C422.604 288.927 423.578 291.345 423.804 293.886C424.03 296.427 423.5 298.979 422.28 301.219C421.059 303.46 419.203 305.289 416.946 306.477C414.688 307.665 412.129 308.159 409.592 307.897C407.054 307.634 404.65 306.627 402.684 305.001C400.717 303.376 399.276 301.205 398.54 298.762C397.804 296.319 397.808 293.713 398.55 291.272L391.077 295.204C388.412 296.504 385.634 297.559 382.777 298.355L431.154 334.819C433.206 336.409 435.553 337.576 438.06 338.251C440.566 338.927 443.182 339.098 445.755 338.754C448.328 338.41 450.807 337.559 453.048 336.249C455.29 334.939 457.248 333.197 458.811 331.124C460.374 329.052 461.509 326.689 462.151 324.174C462.793 321.658 462.929 319.041 462.551 316.472C462.173 313.904 461.288 311.437 459.949 309.213C458.609 306.989 456.842 305.054 454.748 303.519L454.746 303.516ZM452.546 326.403C451.006 328.446 448.895 329.987 446.48 330.83C444.064 331.673 441.453 331.781 438.976 331.14C436.5 330.499 434.269 329.139 432.565 327.23C430.862 325.321 429.763 322.95 429.407 320.417C429.051 317.883 429.455 315.301 430.566 312.997C431.678 310.693 433.448 308.77 435.653 307.472C437.857 306.174 440.397 305.558 442.951 305.703C445.505 305.849 447.959 306.748 450.002 308.288C451.359 309.31 452.502 310.589 453.365 312.052C454.227 313.516 454.793 315.135 455.03 316.817C455.267 318.499 455.171 320.212 454.746 321.856C454.321 323.501 453.576 325.046 452.554 326.403H452.546Z" fill="#181716"/>
<path d="M384.854 289.672C384.954 289.622 385.054 289.572 385.16 289.525L457.445 251.825C459.74 250.642 461.779 249.017 463.444 247.044C465.109 245.071 466.368 242.788 467.148 240.327C467.929 237.866 468.215 235.275 467.991 232.703C467.767 230.131 467.037 227.628 465.843 225.339C464.649 223.05 463.015 221.019 461.034 219.363C459.052 217.708 456.764 216.46 454.299 215.691C451.834 214.923 449.242 214.649 446.67 214.885C444.099 215.122 441.6 215.864 439.317 217.069L398.36 238.431V191.462C398.36 186.264 396.295 181.278 392.619 177.603C388.944 173.927 383.958 171.862 378.76 171.862C373.562 171.862 368.576 173.927 364.901 177.603C361.225 181.278 359.16 186.264 359.16 191.462V262.286C357.493 265.146 356.578 268.382 356.5 271.691C356.423 275.001 357.185 278.276 358.717 281.211C358.857 281.478 359.01 281.733 359.16 281.991L359.323 282.279C361.739 286.294 365.517 289.308 369.969 290.772C374.421 292.235 379.251 292.051 383.578 290.253L384.854 289.672ZM378.76 283.708C376.201 283.708 373.7 282.949 371.573 281.528C369.446 280.106 367.788 278.086 366.809 275.722C365.83 273.358 365.573 270.757 366.073 268.248C366.572 265.738 367.804 263.433 369.613 261.624C371.422 259.815 373.727 258.583 376.237 258.084C378.746 257.585 381.347 257.842 383.711 258.821C386.075 259.8 388.095 261.458 389.516 263.586C390.938 265.713 391.696 268.214 391.696 270.773C391.696 272.472 391.361 274.154 390.711 275.723C390.061 277.292 389.108 278.718 387.907 279.92C386.706 281.121 385.28 282.074 383.71 282.723C382.141 283.373 380.459 283.708 378.76 283.708ZM378.76 244.508C376.201 244.508 373.7 243.749 371.573 242.328C369.446 240.906 367.788 238.886 366.809 236.522C365.83 234.158 365.573 231.557 366.073 229.048C366.572 226.539 367.804 224.234 369.613 222.425C371.422 220.616 373.727 219.384 376.236 218.884C378.746 218.385 381.347 218.641 383.71 219.621C386.074 220.6 388.094 222.258 389.516 224.385C390.937 226.512 391.696 229.013 391.696 231.572C391.696 233.271 391.362 234.953 390.712 236.523C390.062 238.093 389.109 239.519 387.908 240.72C386.707 241.922 385.28 242.875 383.711 243.525C382.141 244.175 380.459 244.51 378.76 244.51V244.508ZM378.76 205.308C376.201 205.308 373.7 204.549 371.573 203.128C369.446 201.706 367.788 199.686 366.809 197.322C365.83 194.958 365.573 192.357 366.073 189.848C366.572 187.339 367.804 185.034 369.613 183.225C371.422 181.416 373.727 180.184 376.236 179.684C378.746 179.185 381.347 179.441 383.71 180.421C386.074 181.4 388.094 183.058 389.516 185.185C390.937 187.312 391.696 189.813 391.696 192.372C391.697 194.071 391.362 195.753 390.712 197.323C390.063 198.893 389.11 200.32 387.908 201.521C386.707 202.723 385.281 203.676 383.711 204.326C382.142 204.976 380.459 205.311 378.76 205.311V205.308ZM418.798 264.461C416.53 265.644 413.962 266.128 411.418 265.851C408.875 265.575 406.471 264.55 404.51 262.907C402.549 261.264 401.119 259.077 400.401 256.621C399.683 254.166 399.71 251.553 400.477 249.112C401.244 246.672 402.718 244.514 404.712 242.911C406.706 241.308 409.13 240.332 411.679 240.107C414.227 239.882 416.785 240.418 419.029 241.646C421.273 242.875 423.102 244.742 424.285 247.01C425.071 248.516 425.552 250.162 425.702 251.855C425.852 253.547 425.666 255.253 425.157 256.873C424.647 258.494 423.824 259.999 422.732 261.301C421.641 262.603 420.304 263.678 418.798 264.464V264.461ZM453.554 246.337C451.285 247.52 448.717 248.004 446.173 247.727C443.63 247.451 441.226 246.426 439.264 244.783C437.303 243.14 435.873 240.952 435.155 238.496C434.438 236.041 434.464 233.427 435.232 230.986C435.999 228.546 437.473 226.387 439.467 224.784C441.462 223.182 443.886 222.206 446.435 221.981C448.984 221.756 451.542 222.292 453.786 223.521C456.03 224.75 457.859 226.617 459.042 228.886C459.828 230.392 460.309 232.038 460.458 233.73C460.607 235.422 460.422 237.127 459.912 238.748C459.403 240.368 458.579 241.873 457.488 243.175C456.397 244.477 455.06 245.551 453.554 246.337Z" fill="#181716"/>
<path d="M371.107 274.345C371.106 272.282 371.717 270.265 372.865 268.551C374.012 266.836 375.642 265.501 377.55 264.715C379.457 263.929 381.555 263.727 383.577 264.136C385.599 264.544 387.454 265.544 388.907 267.009C388.318 265.589 387.422 264.316 386.282 263.283C385.143 262.251 383.789 261.483 382.318 261.036C380.847 260.589 379.294 260.473 377.773 260.697C376.252 260.921 374.799 261.48 373.519 262.332C372.239 263.185 371.164 264.31 370.371 265.628C369.578 266.946 369.087 268.422 368.933 269.952C368.779 271.482 368.966 273.028 369.48 274.477C369.994 275.926 370.823 277.243 371.907 278.334C371.379 277.07 371.107 275.715 371.107 274.345Z" fill="#181716"/>
<path d="M405.313 256.916C405.312 254.853 405.924 252.836 407.071 251.122C408.218 249.407 409.849 248.072 411.756 247.286C413.664 246.5 415.761 246.299 417.783 246.707C419.805 247.116 421.66 248.116 423.113 249.581C422.524 248.16 421.628 246.888 420.488 245.855C419.349 244.822 417.995 244.055 416.524 243.608C415.053 243.16 413.5 243.045 411.979 243.269C410.458 243.493 409.005 244.052 407.725 244.904C406.445 245.757 405.37 246.882 404.577 248.2C403.784 249.517 403.293 250.994 403.139 252.524C402.985 254.054 403.172 255.599 403.686 257.049C404.2 258.498 405.029 259.815 406.113 260.906C405.585 259.642 405.313 258.286 405.313 256.916Z" fill="#181716"/>
<path d="M439.821 238.861C439.82 236.798 440.431 234.781 441.579 233.066C442.726 231.352 444.356 230.017 446.264 229.23C448.171 228.444 450.269 228.243 452.291 228.651C454.313 229.06 456.168 230.06 457.621 231.525C457.032 230.104 456.136 228.832 454.996 227.799C453.857 226.766 452.503 225.999 451.032 225.551C449.561 225.104 448.008 224.989 446.487 225.213C444.966 225.437 443.513 225.995 442.233 226.848C440.953 227.701 439.878 228.826 439.085 230.144C438.292 231.461 437.801 232.938 437.647 234.468C437.493 235.998 437.68 237.543 438.194 238.992C438.708 240.442 439.537 241.759 440.621 242.85C440.093 241.586 439.821 240.23 439.821 238.861Z" fill="#181716"/>
<path d="M434.802 322.516C434.802 320.454 435.414 318.439 436.561 316.725C437.708 315.012 439.338 313.678 441.244 312.892C443.151 312.106 445.247 311.904 447.268 312.312C449.29 312.719 451.144 313.718 452.597 315.181C452.008 313.761 451.112 312.488 449.972 311.455C448.833 310.422 447.479 309.655 446.008 309.208C444.537 308.761 442.984 308.645 441.463 308.869C439.942 309.093 438.489 309.652 437.209 310.504C435.929 311.357 434.854 312.482 434.061 313.8C433.268 315.117 432.777 316.594 432.623 318.124C432.469 319.654 432.656 321.199 433.17 322.649C433.684 324.098 434.513 325.415 435.597 326.506C435.072 325.241 434.801 323.885 434.802 322.516Z" fill="#181716"/>
<path d="M403.083 298.744C403.082 296.681 403.694 294.664 404.841 292.95C405.988 291.235 407.619 289.901 409.526 289.115C411.433 288.329 413.531 288.127 415.553 288.536C417.575 288.944 419.43 289.944 420.883 291.409C420.294 289.989 419.398 288.716 418.258 287.683C417.119 286.65 415.765 285.883 414.294 285.436C412.823 284.989 411.27 284.873 409.749 285.097C408.228 285.321 406.775 285.88 405.495 286.732C404.215 287.585 403.14 288.71 402.347 290.028C401.554 291.345 401.063 292.822 400.909 294.352C400.755 295.882 400.942 297.427 401.456 298.877C401.97 300.326 402.799 301.643 403.883 302.734C403.355 301.47 403.083 300.114 403.083 298.744Z" fill="#181716"/>
<path d="M376.67 304.175L373.146 301.645C371.935 302.528 370.93 303.663 370.198 304.971C369.467 306.279 369.027 307.73 368.909 309.224C368.791 310.718 368.998 312.22 369.514 313.626C370.031 315.033 370.846 316.312 371.903 317.374C370.906 314.976 370.842 312.291 371.724 309.849C372.606 307.406 374.371 305.382 376.67 304.174V304.175Z" fill="#181716"/>
<path d="M567.845 266.491V278.707H566.154V266.491H561.81V264.878H572.192V266.491H567.845Z" fill="#181716"/>
<path d="M587.44 278.707H585.746V267.129L581.7 278.707H579.887L575.841 267.129V278.707H574.148V264.878H576.738L580.803 276.535L584.869 264.878H587.44V278.707Z" fill="#181716"/>
<path d="M586.869 318.824L586.245 317.373C586.235 317.351 586.22 317.333 586.21 317.31C583.127 310.285 578.691 303.936 573.155 298.626C567.619 293.316 561.091 289.148 553.944 286.36C546.796 283.573 539.17 282.221 531.501 282.38C523.831 282.54 516.268 284.209 509.243 287.292L509.186 287.317C495.15 293.486 484.102 304.927 478.428 319.17C472.753 333.414 472.907 349.317 478.855 363.448C484.803 377.579 496.07 388.805 510.222 394.702C524.374 400.6 540.278 400.696 554.501 394.97L553.591 397.27C553.427 397.702 553.44 398.181 553.626 398.604C553.813 399.027 554.159 399.36 554.588 399.53C555.018 399.7 555.498 399.694 555.923 399.513C556.349 399.332 556.686 398.991 556.862 398.564L561.562 386.683C561.647 386.467 561.689 386.237 561.685 386.005C561.68 385.773 561.63 385.544 561.537 385.332C561.445 385.12 561.31 384.928 561.143 384.767C560.976 384.607 560.778 384.481 560.562 384.397L548.727 379.804C548.51 379.72 548.278 379.679 548.045 379.685C547.813 379.691 547.583 379.744 547.371 379.839H547.358C547.041 379.981 546.774 380.213 546.589 380.507C546.404 380.8 546.31 381.142 546.319 381.489C546.328 381.836 546.439 382.172 546.639 382.456C546.838 382.74 547.117 382.958 547.441 383.084L550.109 384.12C545.327 386.049 540.258 387.171 535.109 387.441L534.934 381.287L533.018 381.34L533.194 387.503C527.575 387.555 521.992 386.589 516.717 384.653L518.956 378.91L517.173 378.21L514.94 383.938C509.966 381.895 505.384 379.007 501.395 375.401L505.639 370.909L504.247 369.594L499.987 374.106C495.982 370.157 492.725 365.516 490.375 360.406L496.029 357.926L495.259 356.174L489.585 358.663C487.514 353.695 486.32 348.406 486.054 343.031L492.268 342.853L492.212 340.939L485.998 341.118C485.962 335.495 486.945 329.911 488.898 324.638L494.654 326.885L495.354 325.103L489.632 322.869C491.686 317.904 494.584 313.332 498.198 309.355L502.656 313.567L503.969 312.175L499.504 307.957C503.454 303.97 508.091 300.73 513.192 298.391L515.634 303.958L517.387 303.188L514.939 297.609C519.897 295.554 525.172 294.37 530.533 294.109L530.706 300.191L532.62 300.136L532.447 294.056C538.051 294.027 543.614 295.01 548.869 296.956L546.68 302.57L548.462 303.265L550.641 297.678C555.589 299.725 560.147 302.611 564.115 306.207L559.997 310.568L561.389 311.881L565.518 307.509C568.297 310.262 570.716 313.355 572.718 316.715L539.653 330.823C537.491 329.466 534.952 328.837 532.406 329.029C529.861 329.221 527.445 330.224 525.511 331.89C523.578 333.556 522.229 335.799 521.664 338.288C521.098 340.776 521.345 343.381 522.368 345.719C523.392 348.058 525.137 350.006 527.35 351.28C529.562 352.553 532.124 353.084 534.66 352.794C537.196 352.504 539.572 351.41 541.44 349.67C543.308 347.931 544.569 345.639 545.039 343.13L583.774 326.601C585.214 325.979 586.349 324.81 586.929 323.352C587.51 321.894 587.488 320.266 586.869 318.824Z" fill="#181716"/>
<path d="M587.44 0H170.06V5.669H587.44V0Z" fill="#006CB7"/>
<path d="M458.341 136.062H170.06V141.731H458.341V136.062Z" fill="#006CB7"/>
<path d="M587.439 136.062H496.147V141.731H587.439V136.062Z" fill="#006CB7"/>
<path d="M201.604 81.8451H212.898C212.898 88.5671 210.93 92.9671 206.993 95.0451C204.193 96.5351 198.853 97.2784 190.972 97.2751C182.147 97.2751 176.241 95.4581 173.256 91.8241C170.628 88.6707 169.316 82.5374 169.321 73.4241C169.321 64.3807 170.574 58.2491 173.081 55.0291C175.999 51.2137 181.963 49.3074 190.972 49.3101C200.399 49.3101 206.487 51.0927 209.235 54.6581C211.677 57.8061 212.898 64.6937 212.898 75.3211H180.535C180.535 80.8137 181.014 84.3047 181.972 85.7941C183.229 87.7007 186.217 88.6544 190.937 88.6551C194.876 88.6551 197.446 88.3884 198.647 87.8551C200.619 86.9784 201.605 84.9751 201.604 81.8451ZM180.535 68.1791H201.622C201.622 63.5864 201.024 60.7307 199.829 59.6121C198.634 58.4934 195.672 57.9344 190.945 57.9351C186.278 57.9351 183.318 58.6111 182.065 59.9631C181.045 61.0897 180.535 63.8284 180.535 68.1791Z" fill="#181716"/>
<path d="M254.482 96.7921L254.825 89.7191H254.482C252.154 94.7618 247.259 97.2814 239.796 97.2781C231.918 97.2781 226.727 94.8364 224.224 89.9531C222.608 86.8031 221.801 80.7898 221.802 71.9131C221.802 64.1131 222.79 58.6348 224.765 55.4781C227.34 51.3688 232.368 49.3148 239.849 49.3161C247.387 49.3161 252.115 51.5684 254.034 56.0731H254.482V29.6411H265.698V96.7921H254.482ZM243.205 57.9351C238.661 57.9351 235.721 59.2124 234.386 61.7671C233.476 63.4891 233.021 66.8734 233.022 71.9201C233.022 78.3294 233.416 82.4558 234.203 84.2991C235.474 87.2091 238.474 88.6631 243.203 88.6611C248.536 88.6611 251.87 87.2661 253.203 84.4761C254.056 82.6954 254.482 78.5101 254.48 71.9201C254.48 66.8161 253.904 63.3721 252.752 61.5881C251.235 59.1534 248.053 57.9358 243.205 57.9351Z" fill="#181716"/>
<path d="M317.865 96.7921H306.974V89.5441H306.648C304.493 94.7001 299.52 97.2781 291.73 97.2781C281.189 97.2781 275.919 92.7781 275.922 83.7781V49.8071H287.132V79.3701C287.132 83.0075 287.553 85.3905 288.394 86.5191C289.411 87.9481 291.619 88.6611 295.037 88.6611C299.226 88.6611 302.187 87.7545 303.92 85.9411C305.653 84.1278 306.522 81.1035 306.528 76.8681L306.648 49.8071H317.865V96.7921Z" fill="#181716"/>
<path d="M358.285 78.8959H369.585C369.585 86.4512 367.854 91.5076 364.393 94.0649C361.526 96.2056 356.126 97.2766 348.193 97.2779C339.42 97.2779 333.632 95.4319 330.829 91.7399C328.388 88.5866 327.166 82.4552 327.161 73.3459C327.161 64.3553 328.353 58.2809 330.738 55.1229C333.665 51.2529 339.484 49.3173 348.193 49.3159C355.829 49.3159 361.139 50.2976 364.124 52.2609C367.759 54.6483 369.578 59.3186 369.582 66.2719H358.282C358.282 62.6719 357.475 60.3386 355.86 59.2719C354.604 58.3826 352.033 57.9386 348.148 57.9399C343.608 57.9399 340.77 59.0089 339.633 61.1469C338.79 62.7516 338.371 66.8182 338.376 73.3469C338.376 79.8182 338.765 83.8252 339.542 85.3679C340.616 87.5679 343.485 88.6659 348.148 88.6619C352.452 88.6619 355.217 88.0849 356.443 86.9309C357.669 85.7769 358.283 83.0986 358.285 78.8959Z" fill="#181716"/>
<path d="M408.148 96.792L408.512 90.884H408.245C407.75 92.2233 406.938 93.423 405.879 94.3807C404.819 95.3384 403.544 96.0257 402.162 96.384C399.385 97.0795 396.523 97.3798 393.662 97.276C387.633 97.276 383.307 96.3243 380.684 94.421C377.64 92.217 376.119 88.202 376.12 82.376C376.12 76.7873 377.704 72.8923 380.873 70.691C383.509 68.9056 387.786 68.0123 393.705 68.011C396.445 67.9114 399.187 68.1509 401.869 68.724C403.128 69.027 404.308 69.596 405.329 70.3929C406.35 71.1898 407.189 72.196 407.789 73.344H408.148V67.253C408.148 63.197 407.64 60.5406 406.625 59.284C405.364 57.7353 402.521 56.9596 398.096 56.957C395.105 56.957 393.012 57.2856 391.816 57.943C390.083 58.8996 389.216 60.752 389.216 63.5H377.916C377.916 57.374 379.947 53.2996 384.009 51.277C386.634 49.967 391.319 49.3126 398.062 49.314C406.116 49.314 411.547 50.3566 414.355 52.442C417.698 54.8893 419.37 59.8666 419.371 67.374V96.79L408.148 96.792ZM397.699 75.653C393.971 75.653 391.538 75.9233 390.399 76.464C388.358 77.4206 387.337 79.391 387.338 82.375C387.338 85.545 388.119 87.5763 389.682 88.469C391.001 89.2463 393.673 89.636 397.7 89.638C401.362 89.638 403.854 89.28 405.177 88.564C407.156 87.488 408.147 85.425 408.149 82.375C408.149 79.449 407.098 77.5093 404.997 76.556C403.672 75.954 401.24 75.653 397.699 75.653Z" fill="#181716"/>
<path d="M424.693 58.4229V49.8069H430.554V39.2339H441.773V49.8069H459.867V58.4229H441.768V82.4169C441.768 84.8559 441.975 86.4309 442.398 87.1439C442.998 88.1559 444.408 88.6616 446.627 88.6609C449.443 88.6609 451.184 87.6182 451.85 85.5329C452.249 83.294 452.397 81.0176 452.291 78.7459H462.281C462.402 85.4279 461.505 90.0826 459.592 92.7099C457.378 95.7565 453.075 97.2792 446.682 97.2779C440.589 97.2779 436.437 96.3542 434.225 94.5069C431.774 92.4269 430.548 88.4386 430.549 82.5419V58.4229H424.693Z" fill="#181716"/>
<path d="M482.323 29.6411V39.2341H471.103V29.6411H482.323ZM482.323 49.8071V96.7921H471.103V49.8071H482.323Z" fill="#181716"/>
<path d="M513.354 49.3159C522.784 49.3159 528.93 51.0442 531.791 54.5009C534.239 57.4756 535.463 63.7572 535.463 73.3459C535.463 82.8686 534.239 89.1196 531.791 92.0989C528.924 95.5509 522.779 97.2772 513.354 97.2779C503.929 97.2786 497.782 95.5522 494.913 92.0989C492.465 89.1242 491.241 82.8732 491.242 73.3459C491.242 63.7559 492.466 57.4742 494.913 54.5009C497.778 51.0442 503.925 49.3159 513.354 49.3159ZM513.354 57.9349C508.55 57.9349 505.489 58.9442 504.171 60.9629C503.028 62.7469 502.459 66.9026 502.463 73.4299C502.463 79.9039 503.032 84.0039 504.171 85.7299C505.428 87.6859 508.489 88.6646 513.354 88.6659C518.276 88.6659 521.365 87.6873 522.622 85.7299C523.702 84.0633 524.245 79.9632 524.25 73.4299C524.25 66.7826 523.707 62.6269 522.622 60.9629C521.306 58.9482 518.217 57.9389 513.354 57.9349Z" fill="#181716"/>
<path d="M544.954 49.8069H556.165V56.8779H556.524C556.988 55.4568 557.758 54.1548 558.779 53.0635C559.801 51.9723 561.05 51.1183 562.437 50.5619C565.285 49.6054 568.285 49.1829 571.286 49.3159C577.246 49.3159 581.419 50.5826 583.805 53.1159C586.191 55.6492 587.384 59.8959 587.383 65.8559V96.7899H576.169V67.0469C576.169 63.5336 575.572 61.1366 574.378 59.8559C573.184 58.5752 570.853 57.9349 567.385 57.9349C562.838 57.9349 559.758 59.0349 558.147 61.2349C556.826 63.0256 556.167 66.2722 556.168 70.9749V96.7879H544.954V49.8069Z" fill="#181716"/>
<path d="M576.333 44.9832V38.6702H573.974V37.8252H579.648V38.6702H577.28V44.9832H576.333Z" fill="#181716"/>
<path d="M580.591 44.9832V37.8252H582.016L583.716 42.8932C583.872 43.3662 583.986 43.7182 584.058 43.9532C584.139 43.6932 584.266 43.3105 584.438 42.8052L586.152 37.8252H587.427V44.9832H586.514V38.9922L584.433 44.9832H583.579L581.509 38.8892V44.9832H580.591Z" fill="#181716"/>
<path d="M0.961975 0.944824V140.786H140.802V0.944824H0.961975Z" fill="white"/>
<path d="M0.961975 0.944824V140.786H140.802V0.944824H0.961975ZM131.498 59.0738C131.103 63.6434 130.15 68.1474 128.659 72.4848C123.742 87.0968 118.041 96.1528 104.837 96.1528C100.951 96.1528 94.054 95.1198 91.514 88.2038L90.914 86.5648L89.831 87.9368C87.8334 90.4986 85.2813 92.5744 82.3664 94.0083C79.4514 95.4422 76.2495 96.197 73.001 96.2158C67.962 96.2398 63.915 94.5508 61.301 91.3328L60.582 90.4498L59.818 91.2938C57.018 94.3818 52.15 96.1528 46.454 96.1528C41.981 96.1528 38.119 94.6338 35.578 91.8758L34.885 91.1218L34.165 91.8508C31.34 94.7018 26.889 96.1398 21.293 96.0078C14.503 95.8468 10.369 92.0578 10.237 85.8678C10.031 76.3248 19.268 56.2488 23.089 50.1438C25.572 46.0658 28.989 44.0888 33.527 44.0888C36.619 44.0888 38.733 44.7358 39.99 46.0658C41.133 47.2758 41.36 48.2978 41.461 50.7528L41.592 53.9278L43.267 51.2278C47.322 44.6938 54.041 43.7938 60.698 43.7938C65.327 43.7938 69.365 45.4938 70.987 48.1298L71.587 49.1008L72.455 48.3628C76.3235 45.2972 81.1501 43.6957 86.084 43.8408C91.931 43.8408 96.184 45.2948 98.717 48.1618C99.3318 48.8149 99.8345 49.565 100.205 50.3818L100.856 51.7478L101.832 50.5928C105.542 46.2028 110.611 43.9778 116.899 43.9778C121.879 43.9778 125.66 45.3008 128.135 47.9108C131.229 51.1838 131.672 55.7878 131.498 59.0738Z" fill="#FFED00"/>
<path d="M0.961975 0.944824V140.786H140.802V0.944824H0.961975ZM135.436 64.4388C134.802 69.5258 131.363 78.9548 129.536 82.7238C124.636 92.8238 118.083 100.587 105.462 100.587C98.72 100.587 93.174 98.4368 89.931 94.3038C85.2508 98.4298 79.215 100.687 72.976 100.646C68.4839 100.761 64.0861 99.3459 60.504 96.6328C56.3716 99.3519 51.506 100.741 46.561 100.614C42.353 100.704 38.2238 99.4643 34.761 97.0718C31.233 99.4138 26.608 100.572 21.178 100.447C12.145 100.234 5.90798 94.5038 5.72898 86.1878C5.49098 75.1378 14.8 54.9118 19.185 47.9078C20.6214 45.3544 22.7199 43.2357 25.2595 41.775C27.799 40.3143 30.6856 39.5656 33.615 39.6078C40.278 39.6078 42.693 41.5138 43.881 43.9368C49.022 39.5688 55.837 39.3188 60.689 39.3188C66.045 39.3188 69.404 40.7398 72.264 43.0188C76.4636 40.5539 81.2667 39.3073 86.135 39.4188C93.035 39.4188 98.156 41.0188 101.729 44.5558C105.898 41.0878 111.116 39.5058 116.961 39.5058C124.685 39.5058 129.768 42.2928 132.753 46.4468C136.963 52.3058 136.211 58.2048 135.436 64.4388Z" fill="#E3000B"/>
<path d="M0.000976562 0V141.733H141.733V0H0.000976562ZM139.782 1.953V139.781H1.95398V1.953H139.782Z" fill="#181716"/>
<path d="M134.754 42.5279V41.5639H135.409C135.888 41.5639 136.136 41.7319 136.136 42.0419C136.136 42.2889 135.976 42.5279 135.489 42.5279H134.754ZM137.104 44.5279L136.696 43.8199C136.341 43.2019 136.243 43.1049 135.942 42.9979V42.9799C136.198 42.9734 136.441 42.8664 136.619 42.682C136.796 42.4977 136.894 42.2509 136.891 41.9949C136.891 41.4369 136.536 41.0109 135.782 41.0109H134.028V44.5279H134.754V43.0879H134.886C134.989 43.071 135.095 43.0782 135.195 43.1089C135.295 43.1396 135.387 43.193 135.463 43.2649C135.653 43.4723 135.814 43.7044 135.942 43.9549L136.225 44.5299L137.104 44.5279ZM135.373 40.0279C135.913 40.026 136.442 40.1843 136.892 40.4828C137.342 40.7814 137.693 41.2068 137.901 41.7052C138.109 42.2035 138.165 42.7525 138.061 43.2824C137.957 43.8124 137.698 44.2996 137.317 44.6824C136.936 45.0651 136.45 45.3262 135.92 45.4325C135.391 45.5388 134.842 45.4857 134.342 45.2797C133.843 45.0738 133.416 44.7243 133.116 44.2756C132.815 43.8268 132.654 43.299 132.654 42.7589C132.655 42.0377 132.942 41.3463 133.451 40.8356C133.96 40.3249 134.651 40.0364 135.372 40.0329L135.373 40.0279ZM135.373 39.3569C134.702 39.3579 134.046 39.5577 133.489 39.9312C132.931 40.3046 132.497 40.8349 132.241 41.455C131.984 42.0752 131.917 42.7574 132.049 43.4155C132.18 44.0736 132.503 44.6781 132.977 45.1526C133.452 45.6271 134.056 45.9503 134.714 46.0815C135.373 46.2126 136.055 46.1458 136.675 45.8895C137.295 45.6331 137.825 45.1987 138.199 44.6412C138.572 44.0837 138.772 43.428 138.773 42.7569C138.774 42.3103 138.687 41.8679 138.516 41.4552C138.345 41.0425 138.095 40.6676 137.779 40.3521C137.463 40.0366 137.087 39.7867 136.674 39.6168C136.261 39.4468 135.819 39.3602 135.372 39.3619L135.373 39.3569Z" fill="#181716"/>
<path d="M116.889 43.0009C109.564 43.0009 104.504 45.9009 101.076 49.9619C100.667 49.0624 100.114 48.2358 99.439 47.5149C96.639 44.3439 92.125 42.8639 86.074 42.8639C80.907 42.7076 75.8527 44.3925 71.813 47.6179C70.034 44.7299 65.799 42.8179 60.691 42.8179C54.017 42.8179 46.744 43.7619 42.43 50.7129C42.33 48.2129 42.1 46.8859 40.693 45.3959C38.983 43.5859 36.216 43.1129 33.52 43.1129C28.608 43.1129 24.914 45.2579 22.254 49.6269C18.394 55.7909 9.04101 76.0679 9.25401 85.8899C9.39001 92.2339 13.646 96.8069 21.264 96.9839C27.215 97.1269 31.883 95.5369 34.854 92.5389C37.519 95.4329 41.585 97.1309 46.448 97.1309C51.865 97.1309 57.317 95.5049 60.537 91.9489C63.249 95.2829 67.518 97.2199 73.005 97.1929C76.4002 97.1736 79.747 96.3853 82.7939 94.8871C85.8407 93.3889 88.5086 91.2199 90.597 88.5429C92.856 94.6919 98.584 97.1309 104.838 97.1309C118.548 97.1309 124.569 87.7049 129.586 72.7979C131.105 68.3764 132.076 63.785 132.475 59.1269C132.89 51.2919 129.574 43.0009 116.889 43.0009ZM25.672 80.4749C32.765 79.2429 34.549 81.8079 34.325 84.1819C33.656 91.2909 27.134 92.8819 21.472 92.7479C17.365 92.6479 13.672 90.7709 13.572 86.0009C13.393 77.6589 21.901 58.3609 25.906 51.9629C27.755 48.9279 30.006 47.4249 33.606 47.4249C37.012 47.4249 37.856 49.1739 37.806 51.2689C37.665 56.8529 28.635 73.8399 25.672 80.4749ZM48.772 73.9229C48.303 75.1919 47.414 77.8529 46.697 80.6739C48.9901 80.0051 51.3732 79.6964 53.761 79.7589C57.169 79.8429 59.347 81.2589 59.347 84.0729C59.347 90.9039 51.797 92.9109 46.559 92.9109C40.807 92.9109 35.759 89.6359 35.759 83.3469C35.759 75.9739 39.759 64.7929 43.507 57.3469C48.114 48.2019 52.819 46.9849 60.925 46.9849C64.489 46.9849 68.593 48.5089 68.593 51.8699C68.593 56.5329 64.643 58.3129 60.726 58.5369C58.8 58.664 56.8687 58.69 54.94 58.6149C53.8731 60.3682 52.9728 62.2176 52.251 64.1389C59.503 63.1189 62.577 64.7649 61.351 68.9589C59.695 74.6259 54.784 74.9989 48.77 73.9229H48.772ZM84.441 56.2919C83.5809 56.338 82.7461 56.5986 82.0125 57.0499C81.2789 57.5012 80.6699 58.129 80.241 58.8759C78.141 61.8259 73.585 73.6549 72.876 78.5139C72.39 81.8429 73.827 82.5209 75.399 82.5209C77.918 82.5209 80.742 79.8549 81.707 75.4539C81.707 75.4539 76.907 75.3379 78.234 71.0849C79.518 66.9569 81.955 66.0629 85.996 65.8969C93.957 65.5709 93.171 71.4499 92.533 74.5849C90.465 84.7639 83.22 92.9419 72.972 92.9419C65.956 92.9419 61.6 89.0619 61.6 81.9049C61.6 76.8049 64.129 68.8049 66.134 64.1229C70.402 54.1549 74.876 47.1779 86.277 47.1779C93.117 47.1779 98.513 49.6349 97.722 56.0439C97.141 60.7439 94.787 63.5089 90.511 63.8439C89.316 63.9379 84.423 63.8149 86.046 59.1849C86.611 57.5649 86.844 56.2919 84.439 56.2919H84.441ZM127.498 64.7049C126.102 71.1318 123.792 77.3254 120.638 83.0969C115.838 91.7309 110.006 92.9389 104.915 92.8789C99.824 92.8189 94.085 90.9379 94.042 83.0789C94.01 77.4399 96.442 69.4789 98.508 64.2639C102.108 54.8059 105.785 47.0949 117.408 47.2329C130.969 47.3979 128.554 59.4529 127.496 64.7049H127.498ZM117.83 58.7929C117.686 62.4139 112.378 76.8929 110.492 80.0929C109.675 81.4779 108.754 82.6229 107.092 82.6229C106.803 82.6346 106.515 82.5852 106.246 82.4778C105.978 82.3705 105.735 82.2077 105.534 82C105.332 81.7923 105.177 81.5445 105.078 81.2727C104.98 81.0009 104.939 80.7113 104.96 80.4229C104.855 77.1559 110.851 60.7709 112.902 58.1129C113.204 57.5715 113.657 57.13 114.206 56.8424C114.755 56.5548 115.376 56.4337 115.993 56.4939C117.695 56.5099 117.87 57.7379 117.828 58.7929H117.83Z" fill="#181716"/>
</g>
<defs>
<clipPath id="clip0_5000_22454">
<rect width="587.441" height="435.985" fill="white"/>
</clipPath>
</defs>
</svg>
